<svg width="110" height="43" viewBox="0 0 110 43" fill="none" xmlns="http://www.w3.org/2000/svg">
<mask id="path-1-inside-1" fill="white">
<path fill-rule="evenodd" clip-rule="evenodd" d="M0 36.5L3.5 34.5L7 32.5L10 29L14 25L15 24L17 26H19L22 22.5L24.5 18.5L26.5 17L28 14C28.6667 12.6667 30.2 10 31 10C31.8 10 33 8 33.5 7L36 8.5L39.5 12L42 14L44 13.5L46 11.5L48 8.5L49.5 6.5L51.5 4.5L53.5 2L55.5 0L58 3L60 6.5L62.5 8.5H64.5V10L65.5 12L69 13.5L70.5 15.5L72.5 17H76L78 16.5L79.5 14L82.5 17C82.8333 17.8333 83.7 19.6 84.5 20C85.3 20.4 86.1667 21.1667 86.5 21.5L88.5 20L89.5 22.5L93.5 21.5L94 24L95.5 27L98.5 29L102 32.5L104.5 34.5L107 36.5L109.5 38L106 37L102 34.5L100.5 32.5L99 31.5V34.5L97 32.5L94 30L91.5 27L89.5 25L88.5 26V28L90.5 30L91.5 31.5L92.5 33.5L89.5 31L88.5 29H86.5V26L84.5 24L82.5 22.5L81.5 20L80.5 18L79.5 16.5L78 18V20L77 22.5L76.5 20.5L76 19L75 20L73.5 21.5L73 23.5L74.5 25.5L76 27L79 28H80.5H82.5L83.5 30L85.5 31.5L87.5 33.5L89.5 34.5L90.5 35.5H91.5L94.5 36L95.5 38H92.5L91.5 37L89.5 36.5L87.5 34.5L84.5 33.5L82.5 31.5L81.5 30L80.5 29H75L73.5 28L72.5 26L71.5 24V22.5L70.5 20.5L69 18L67.5 17V20V21.5L69 23.5L69.5 25.5L71.5 29L68.5 25.5L67 23.5L66 21L65.5 18L64.5 16.5L63.5 15.5V13.5L62.5 11.5L61.5 13.5V15.5L62.5 18L60.5 16L60 12V10.5L58.5 9.5L58 8L56.5 5.5L55.5 7L55 9L53.5 12L54 14.5L53.5 17L52.5 18V16L51.5 14L50.5 16L49.5 18L48 19L47 20.5L45 22.5L44 24V26L41.5 28L42.5 25V23.5H41.5L39.5 24L39 26L37.5 28L36 29L34 30L35 32.5L37.5 34.5L39.5 36L42 34.5L42.5 32.5L45 31L47 30L49.5 28L51.5 26L52.5 23.5L54 22.5L55.5 24L58.5 26L60 28L62.5 27L64.5 28L67 30L69 32.5L72 34L73.5 36L77 39.5L72.5 37H69.5L67.5 36L65.5 34L63.5 31L62.5 30L60.5 31.5L62.5 33.5L63.5 35.5L65.5 36.5L61.5 36L60 34L58.5 31.5L58 30L56.5 28L55 25.5L52.5 27L51.5 29L49.5 30L48 31.5V34L47 36V34V32.5H45L44 34L43 36L41.5 37L39.5 38.5L37.5 39.5L35 41.5L31.5 42.5L34.5 40L36 39.5L36.5 37.5L34.5 37L33.5 35.5L32.5 34.5L31.5 36.5V38L31 35.5L30.5 34H29.5L29 33L28 31L26.5 29L24.5 31L22.5 33.5L20.5 35.5L19 36L17.5 35L15 34.5L14 36L12 37.5L9 39.5L7 40L11 37L12.5 35V33.5L14 32.5L15 31L16 29L15 28L14 27L12.5 30L9 32.5L5 35L0 36.5ZM20.5 27L18.5 28.5L17 30.5L16 32.5L16.5 33L18 33.5H19.5L21 32.5L22.5 31L24.5 28.5L26.5 26L27.5 27L29 28.5L31.5 29L33.5 28.5L35 27L36.5 25.5V23.5L39 22.5L42 21.5L42.5 20L41.5 18.5L39 17V18.5L37.5 20.5V18.5L36 16V14V12L34.5 11.5L33.5 13.5V15.5L32.5 18L30.5 19L29 21.5L28 22.5L26.5 23.5V21.5H24.5L23.5 23.5L22.5 26L20.5 27ZM29.5 14.5L31.5 12.5V14.5L30.5 16.5L28 19L27.5 18.5L29 16.5L29.5 14.5ZM52.5 5.5L55 3L54.5 5.5L53 8L52.5 10.5L50.5 12L49 14.5L47 16.5L45 15.5L46 13.5L47 12L49 10.5L50.5 10L51.5 8L52.5 5.5Z"/>
</mask>
<path fill-rule="evenodd" clip-rule="evenodd" d="M0 36.5L3.5 34.5L7 32.5L10 29L14 25L15 24L17 26H19L22 22.5L24.5 18.5L26.5 17L28 14C28.6667 12.6667 30.2 10 31 10C31.8 10 33 8 33.5 7L36 8.5L39.5 12L42 14L44 13.5L46 11.5L48 8.5L49.5 6.5L51.5 4.5L53.5 2L55.5 0L58 3L60 6.5L62.5 8.5H64.5V10L65.5 12L69 13.5L70.5 15.5L72.5 17H76L78 16.5L79.5 14L82.5 17C82.8333 17.8333 83.7 19.6 84.5 20C85.3 20.4 86.1667 21.1667 86.5 21.5L88.5 20L89.5 22.5L93.5 21.5L94 24L95.5 27L98.5 29L102 32.5L104.5 34.5L107 36.5L109.5 38L106 37L102 34.5L100.5 32.5L99 31.5V34.5L97 32.5L94 30L91.5 27L89.5 25L88.5 26V28L90.5 30L91.5 31.5L92.5 33.5L89.5 31L88.5 29H86.5V26L84.5 24L82.5 22.5L81.5 20L80.5 18L79.5 16.5L78 18V20L77 22.5L76.5 20.5L76 19L75 20L73.5 21.5L73 23.5L74.5 25.5L76 27L79 28H80.5H82.5L83.5 30L85.5 31.5L87.5 33.5L89.5 34.5L90.5 35.5H91.5L94.5 36L95.5 38H92.5L91.5 37L89.5 36.5L87.5 34.5L84.5 33.5L82.5 31.5L81.5 30L80.5 29H75L73.5 28L72.5 26L71.5 24V22.5L70.5 20.5L69 18L67.5 17V20V21.5L69 23.5L69.5 25.5L71.5 29L68.5 25.5L67 23.5L66 21L65.5 18L64.5 16.5L63.5 15.5V13.5L62.5 11.5L61.5 13.5V15.5L62.5 18L60.5 16L60 12V10.5L58.5 9.5L58 8L56.5 5.5L55.5 7L55 9L53.5 12L54 14.5L53.5 17L52.5 18V16L51.5 14L50.5 16L49.5 18L48 19L47 20.5L45 22.5L44 24V26L41.5 28L42.5 25V23.5H41.5L39.5 24L39 26L37.5 28L36 29L34 30L35 32.5L37.5 34.5L39.5 36L42 34.5L42.5 32.5L45 31L47 30L49.5 28L51.5 26L52.5 23.5L54 22.5L55.5 24L58.5 26L60 28L62.5 27L64.5 28L67 30L69 32.5L72 34L73.5 36L77 39.5L72.5 37H69.5L67.5 36L65.5 34L63.5 31L62.5 30L60.5 31.5L62.5 33.5L63.5 35.5L65.5 36.5L61.5 36L60 34L58.5 31.5L58 30L56.5 28L55 25.5L52.5 27L51.5 29L49.5 30L48 31.5V34L47 36V34V32.5H45L44 34L43 36L41.5 37L39.5 38.5L37.5 39.5L35 41.5L31.5 42.5L34.5 40L36 39.5L36.5 37.5L34.5 37L33.5 35.5L32.5 34.5L31.5 36.5V38L31 35.5L30.5 34H29.5L29 33L28 31L26.5 29L24.5 31L22.5 33.5L20.5 35.5L19 36L17.5 35L15 34.5L14 36L12 37.5L9 39.5L7 40L11 37L12.5 35V33.5L14 32.5L15 31L16 29L15 28L14 27L12.5 30L9 32.5L5 35L0 36.5ZM20.5 27L18.5 28.5L17 30.5L16 32.5L16.5 33L18 33.5H19.5L21 32.5L22.5 31L24.5 28.5L26.5 26L27.5 27L29 28.5L31.5 29L33.5 28.5L35 27L36.5 25.5V23.5L39 22.5L42 21.5L42.5 20L41.5 18.5L39 17V18.5L37.5 20.5V18.5L36 16V14V12L34.5 11.5L33.5 13.5V15.5L32.5 18L30.5 19L29 21.5L28 22.5L26.5 23.5V21.5H24.5L23.5 23.5L22.5 26L20.5 27ZM29.5 14.5L31.5 12.5V14.5L30.5 16.5L28 19L27.5 18.5L29 16.5L29.5 14.5ZM52.5 5.5L55 3L54.5 5.5L53 8L52.5 10.5L50.5 12L49 14.5L47 16.5L45 15.5L46 13.5L47 12L49 10.5L50.5 10L51.5 8L52.5 5.5Z" fill="#E5E5E5" stroke="#E5E5E5" mask="url(#path-1-inside-1)"/>
</svg>
