<svg width="98" height="39" viewBox="0 0 98 39" fill="none" xmlns="http://www.w3.org/2000/svg">
<path fill-rule="evenodd" clip-rule="evenodd" d="M1.5 36.5L5 35L9.5 33L13.5 30C14 29.3333 15.2 28 16 28C16.8 28 18.3333 26 19 25H21L23 22.5L26 19L30 15L32 16.5L34 14L38 11L42.5 7.5C43.5 5.83333 45.7 2.5 46.5 2.5C47.3 2.5 48.8333 1.5 49.5 1L53 5L57 8.5L61 12L64.5 10.5L68.5 14L72.5 16.5L75 15L78 17.5L80.5 20.5L83 24L85 27.5L86 29H89L90.5 31L92.5 33.5L94.5 35.5L97 37.5L93 37L91 35L89 33H86L83 31L82 29L80.5 26L79 22.5L77 24L78.5 26.5L79 29L75.5 25.5L73.5 24L71.5 21.5L69.5 19L66.5 16.5L67.5 19L69.5 22.5L70 26L71.5 28L74 30.5L75 32.5L77 35L79 37L74 34L71.5 31L69.5 32L67.5 29L65.5 27.5L63.5 23.5L61.5 20.5L60 18.5L61 22.5V25.5L62.5 28L64.5 30.5V33L65.5 36.5L62.5 34L60 29L58.5 27.5V30L59.5 34.5L57 32L55.5 27.5L54.5 25L52 21.5L49.5 22.5L50 25.5L52 29L49.5 27.5L48 25.5L47 23L46.5 20.5L45 22.5L44 26L42.5 29L39.5 33L37 35.5L39.5 31L41.5 27.5L42.5 24L42 19.5L43.5 17V14L41 16.5L39.5 20.5L38 24L37 29L36 25.5V23.5L34 25L32 27.5L31.5 30.5L30.5 33L27 36.5L23 37.5L25 35.5L27 33.5L28.5 31V27L26.5 28.5L24 30V27.5L25 26L27 24L28.5 21.5V19.5L25 23.5L23 26L21 28.5L19 29L16.5 30.5L15 32L13.5 35.5L12.5 36.5V34V33L10.5 34.5L6.5 37L1 38.5L1.5 36.5ZM38 14L40.5 11L40 14L38.5 16L37 18L34.5 20L32.5 21.5L30.5 23.5V21.5L31 20L33 18.5L35.5 17.5L36.5 15.5L38 14ZM48.5 7L49 5L50 6.5L51.5 7.5L53 9L52.5 9.5L51.5 10.5L51 12.5L52.5 14.5L55 17L56.5 19.5V23L56 22L54 19L52.7723 17L51 15.5L49 13V11L50 9L49.5 8L48.5 7ZM61 15.5V14L62 14.5L63.5 15.5V17L64 19L64.5 20.5L63 19.5L62 17L61 15.5ZM73 19.5L72.5 18L74 18.5L75 20.5L75.5 22L74.5 21.5L73 19.5Z" fill="#E5E5E5" stroke="#E5E5E5" stroke-width="0.5"/>
</svg>
