<svg width="450" height="471" viewBox="0 0 450 471" fill="none" xmlns="http://www.w3.org/2000/svg">
<path d="M50.5 169L37.5 341.5L46 293.5L48.5 311.5L52.5 280.5L59 293.5L60.5 274L68.5 289L75.5 249.5L81.5 262.5V240L90 252.648L72.5 143L68.5 287.323L50.5 169Z" fill="#F6F5F5"/>
<path d="M98.1451 93.1387L90 252.648L96.5 223.5L99.5 240L103.5 218.5L110.5 230.851L98.1451 93.1387Z" fill="#F6F5F5"/>
<path d="M118.069 50.5369L110.5 230.851L117.5 203.442V218.5L122 203.442L129.5 216.07L118.069 50.5369Z" fill="#F6F5F5"/>
<path d="M137.993 16.8518L129.5 216.07L134.5 195L137 203.442L140.5 189L146.5 203.442L137.993 16.8518Z" fill="#F6F5F5"/>
<path d="M156.589 1L146.5 203.442L156 180L157.5 198L163 180L169 203.442L156.589 1Z" fill="#F6F5F5"/>
<path d="M177.841 32.7036L169 203.442L178.5 182.5L179.5 202L184.5 185.5L192 209L177.841 32.7036Z" fill="#F6F5F5"/>
<path d="M197.765 47.5647L192 209L198 190.5V209L203.5 195L208.5 216.07L197.765 47.5647Z" fill="#F6F5F5"/>
<path d="M216.361 67.3795L208.5 216.07L215 198L217 216.07L221.5 200.5L230.5 228.87L216.361 67.3795Z" fill="#F6F5F5"/>
<path d="M240.27 103.046L230.5 228.87L238 213.5V228.87L242.5 220.5L249 239.5L240.27 103.046Z" fill="#F6F5F5"/>
<path d="M258.866 124.842L249 239.5L255.5 230.851V242L261.5 235.5L268.049 252.648L258.866 124.842Z" fill="#F6F5F5"/>
<path d="M278.79 155.555L268.049 252.648L274.5 246L277 256.5L282 249.5L288.423 270.481L278.79 155.555Z" fill="#F6F5F5"/>
<path d="M298.714 181.314L288.423 270.481L295 256.5L298.714 275.5L303 263.5L308.967 287.323L298.714 181.314Z" fill="#F6F5F5"/>
<path d="M319.966 214.009L308.967 287.323L315 275.5V290L319.966 282.5L327.936 300.855L319.966 214.009Z" fill="#F6F5F5"/>
<path d="M338.395 227.071L327.936 300.855L335.5 286.826L338.395 300.855L341.5 290L347.86 307.408L338.395 227.071Z" fill="#F6F5F5"/>
<path d="M358.486 230.851L347.86 307.408L355.5 290V307.408L358.486 295.601L367.784 309.983L358.486 230.851Z" fill="#F6F5F5"/>
<path d="M399.662 234.814L389.036 308.386L394.5 295.601L398.5 305L402 295.601L409.629 303.175L399.662 234.814Z" fill="#F6F5F5"/>
<path d="M378.41 233.824L367.784 309.983L374.5 295.601L378.41 308.386L382.5 298L389.036 308.386L378.41 233.824Z" fill="#F6F5F5"/>
<path d="M419.586 234.814L409.629 303.175L416 290L419.586 295.601L423.5 286.826L428.884 295.601L419.586 234.814Z" fill="#F6F5F5"/>
<path d="M440.467 233.824L428.884 295.601L435 282.5L437 290.5L440.467 278L448.808 286.826L440.467 233.824Z" fill="#F6F5F5"/>
<path d="M90 252.648L72.5 143L68.5 287.323L50.5 169L37.5 341.5L46 293.5L48.5 311.5L52.5 280.5L59 293.5L60.5 274L68.5 289L75.5 249.5L81.5 262.5V240L90 252.648ZM90 252.648L98.1451 93.1387L110.5 230.851M90 252.648L96.5 223.5L99.5 240L103.5 218.5L110.5 230.851M110.5 230.851L118.069 50.5369L129.5 216.07M110.5 230.851L117.5 203.442V218.5L122 203.442L129.5 216.07M129.5 216.07L137.993 16.8518L146.5 203.442M129.5 216.07L134.5 195L137 203.442L140.5 189L146.5 203.442M146.5 203.442L156.589 1L169 203.442M146.5 203.442L156 180L157.5 198L163 180L169 203.442M169 203.442L177.841 32.7036L192 209M169 203.442L178.5 182.5L179.5 202L184.5 185.5L192 209M192 209L197.765 47.5647L208.5 216.07M192 209L198 190.5V209L203.5 195L208.5 216.07M208.5 216.07L216.361 67.3795L230.5 228.87M208.5 216.07L215 198L217 216.07L221.5 200.5L230.5 228.87M230.5 228.87L240.27 103.046L249 239.5M230.5 228.87L238 213.5V228.87L242.5 220.5L249 239.5M249 239.5L258.866 124.842L268.049 252.648M249 239.5L255.5 230.851V242L261.5 235.5L268.049 252.648M268.049 252.648L278.79 155.555L288.423 270.481M268.049 252.648L274.5 246L277 256.5L282 249.5L288.423 270.481M288.423 270.481L298.714 181.314L308.967 287.323M288.423 270.481L295 256.5L298.714 275.5L303 263.5L308.967 287.323M308.967 287.323L319.966 214.009L327.936 300.855M308.967 287.323L315 275.5V290L319.966 282.5L327.936 300.855M327.936 300.855L338.395 227.071M327.936 300.855L335.5 286.826L338.395 300.855L341.5 290L347.86 307.408M338.395 227.071L338.562 225.898M338.395 227.071L347.86 307.408M347.86 307.408L358.486 230.851L367.784 309.983M347.86 307.408L355.5 290V307.408L358.486 295.601L367.784 309.983M367.784 309.983L378.41 233.824L389.036 308.386M367.784 309.983L374.5 295.601L378.41 308.386L382.5 298L389.036 308.386M389.036 308.386L399.662 234.814L409.629 303.175M389.036 308.386L394.5 295.601L398.5 305L402 295.601L409.629 303.175M409.629 303.175L419.586 234.814L428.884 295.601M409.629 303.175L416 290L419.586 295.601L423.5 286.826L428.884 295.601M428.884 295.601L440.467 233.824M428.884 295.601L435 282.5L437 290.5L440.467 278L448.808 286.826L440.467 233.824M440.467 233.824L440.839 231.842" stroke="#F6F5F5"/>
<path d="M216.364 258.97L203.695 280.507L187.226 295.709L177.092 308.377L160.623 295.709L153.022 280.507L147.954 291.908L144.154 304.577L134.019 321.046L120.084 341.315L109.949 357.784L98.5472 362.852L92.2129 372.987L83.345 380.588L66.876 369.186L52.9407 376.787L42.8059 390.722L17.469 413.526L1 435.062V445.197L6.06739 435.062L13.6685 431.262L25.0701 424.927V427.461L28.8706 431.262L35.2049 427.461V442.663L47.8733 431.262V445.197L59.2749 442.663L83.345 445.197L107.415 448.997H113.749L103.615 442.663H96.0135L103.615 435.062L113.749 431.262L98.5472 427.461H85.8787L79.5445 424.927V417.326H59.2749L71.9434 404.658L75.7439 399.59L66.876 390.722L63.0755 380.588L71.9434 383.121L83.345 390.722H89.6792L107.415 397.057V413.526L113.749 417.326L126.418 404.658L134.019 393.256L153.022 383.121L169.491 376.787L164.423 386.922L153.022 399.59L137.819 413.526L156.822 404.658L169.491 397.057L177.092 393.256H187.226L193.561 397.057L199.895 404.658L203.695 397.057L207.496 390.722L223.965 393.256L236.633 399.59V413.526L245.501 404.658H250.569L253.102 413.526L277.172 410.992L260.703 424.927L256.903 431.262H267.038L260.703 442.663L274.639 445.197V456.598L286.04 460.399H297.442L311.377 465.466L325.313 469.267L316.445 460.399L303.776 451.531L292.375 448.997H283.507V431.262L289.841 422.394L292.375 413.526L283.507 399.59V380.588L286.04 376.787L289.841 386.922L297.442 404.658L303.776 422.394L316.445 431.262L327.846 442.663L332.914 445.197L336.714 456.598L346.849 465.466H359.518L367.119 469.267L359.518 460.399L346.849 448.997V437.596L355.717 431.262H369.652L392.456 427.461H406.391L415.259 437.596H426.66V427.461L411.458 422.394L400.057 410.992L396.256 404.658L392.456 410.992L381.054 413.526H369.652L359.518 404.658L353.183 397.057L346.849 399.59H340.515L332.914 393.256L327.846 386.922H318.978L316.445 372.987L318.978 357.784V353.984L311.377 341.315L316.445 338.782H332.914L336.714 353.984L346.849 369.186L359.518 376.787L369.652 383.121L381.054 397.057L392.456 404.658L373.453 376.787L359.518 357.784L346.849 341.315L332.914 326.113L325.313 308.377L307.577 321.046L297.442 338.782L292.375 347.65L286.04 353.984H274.639V362.852L269.571 366.652L260.703 372.987L250.569 383.121L245.501 380.588L242.968 372.987H232.833L229.032 362.852L216.364 369.186H207.496L226.499 353.984L236.633 357.784L242.968 347.65L253.102 338.782L260.703 343.849L269.571 350.183L267.038 341.315L260.703 331.181L253.102 326.113L242.968 331.181L229.032 333.714L216.364 341.315H203.695V333.714L212.563 321.046L216.364 304.577V291.908L203.695 298.243L193.561 308.377L182.159 321.046L169.491 331.181L160.623 341.315L156.822 338.782V310.911C156.822 310.067 157.582 308.884 160.623 310.911C163.663 312.938 167.801 316.823 169.491 318.512H177.092L182.159 308.377L191.027 298.243L203.695 291.908L212.563 284.307L220.164 280.507L229.032 291.908L236.633 298.243L242.968 310.911L250.569 318.512L260.703 321.046H269.571L274.639 326.113L277.172 338.782L283.507 343.849L292.375 347.65L289.841 333.714L277.172 321.046L267.038 310.911L256.903 304.577L250.569 295.709V288.108H245.501L232.833 277.973L226.499 266.572L220.164 250.103L216.364 258.97Z" fill="#F6F5F5"/>
<path d="M126.418 448.997L137.819 437.596L147.954 431.262L164.423 427.461L169.491 422.394L166.957 413.526H177.092V408.458L187.226 404.658L203.695 413.526L212.563 424.927L229.032 437.596L240.434 448.997H229.032L220.164 442.663L212.563 435.062L203.695 427.461L193.561 422.394L191.027 417.326H182.159V424.927L187.226 427.461V435.062L199.895 437.596L207.496 445.197L212.563 451.531L199.895 448.997L184.693 445.197H177.092L164.423 448.997H156.822L153.022 440.129L147.954 437.596L137.819 445.197L126.418 448.997Z" fill="#F6F5F5"/>
<path d="M292.375 347.65L297.442 338.782L307.577 321.046L325.313 308.377L332.914 326.113L346.849 341.315L359.518 357.784L373.453 376.787L392.456 404.658L381.054 397.057L369.652 383.121L359.518 376.787L346.849 369.186L336.714 353.984L332.914 338.782H316.445L311.377 341.315L318.978 353.984V357.784L316.445 372.987L318.978 386.922H327.846L332.914 393.256L340.515 399.59H346.849L353.183 397.057L359.518 404.658L369.652 413.526H381.054L392.456 410.992L396.256 404.658L400.057 410.992L411.458 422.394L426.66 427.461V437.596H415.259L406.391 427.461H392.456L369.652 431.262H355.717L346.849 437.596V448.997L359.518 460.399L367.119 469.267L359.518 465.466H346.849L336.714 456.598L332.914 445.197L327.846 442.663L316.445 431.262L303.776 422.394L297.442 404.658L289.841 386.922L286.04 376.787L283.507 380.588V399.59L292.375 413.526L289.841 422.394L283.507 431.262V448.997H292.375L303.776 451.531L316.445 460.399L325.313 469.267L311.377 465.466L297.442 460.399H286.04L274.639 456.598V445.197L260.703 442.663L267.038 431.262H256.903L260.703 424.927L277.172 410.992L253.102 413.526L250.569 404.658H245.501L236.633 413.526V399.59L223.965 393.256L207.496 390.722L203.695 397.057L199.895 404.658L193.561 397.057L187.226 393.256H177.092L169.491 397.057L156.822 404.658L137.819 413.526L153.022 399.59L164.423 386.922L169.491 376.787L153.022 383.121L134.019 393.256L126.418 404.658L113.749 417.326L107.415 413.526V397.057L89.6792 390.722H83.345L71.9434 383.121L63.0755 380.588L66.876 390.722L75.7439 399.59L71.9434 404.658L59.2749 417.326H79.5445V424.927L85.8787 427.461H98.5472L113.749 431.262L103.615 435.062L96.0135 442.663H103.615L113.749 448.997H107.415L83.345 445.197L59.2749 442.663L47.8733 445.197V431.262L35.2049 442.663V427.461L28.8706 431.262L25.0701 427.461V424.927L13.6685 431.262L6.06739 435.062L1 445.197V435.062L17.469 413.526L42.8059 390.722L52.9407 376.787L66.876 369.186L83.345 380.588L92.2129 372.987L98.5472 362.852L109.949 357.784L120.084 341.315L134.019 321.046L144.154 304.577L147.954 291.908L153.022 280.507L160.623 295.709L177.092 308.377L187.226 295.709L203.695 280.507L216.364 258.97L220.164 250.103L226.499 266.572L232.833 277.973L245.501 288.108H250.569V295.709L256.903 304.577L267.038 310.911L277.172 321.046L289.841 333.714L292.375 347.65ZM292.375 347.65L286.04 353.984H274.639V362.852L269.571 366.652L260.703 372.987L250.569 383.121L245.501 380.588L242.968 372.987H232.833L229.032 362.852L216.364 369.186H207.496L226.499 353.984L236.633 357.784L242.968 347.65L253.102 338.782L260.703 343.849L269.571 350.183L267.038 341.315L260.703 331.181L253.102 326.113L242.968 331.181L229.032 333.714L216.364 341.315H203.695V333.714L212.563 321.046L216.364 304.577V291.908L203.695 298.243L193.561 308.377L182.159 321.046L169.491 331.181L160.623 341.315L156.822 338.782V310.911C156.822 310.067 157.582 308.884 160.623 310.911C163.663 312.938 167.801 316.823 169.491 318.512H177.092L182.159 308.377L191.027 298.243L203.695 291.908L212.563 284.307L220.164 280.507L229.032 291.908L236.633 298.243L242.968 310.911L250.569 318.512L260.703 321.046H269.571L274.639 326.113L277.172 338.782L283.507 343.849L292.375 347.65ZM126.418 448.997L137.819 437.596L147.954 431.262L164.423 427.461L169.491 422.394L166.957 413.526H177.092V408.458L187.226 404.658L203.695 413.526L212.563 424.927L229.032 437.596L240.434 448.997H229.032L220.164 442.663L212.563 435.062L203.695 427.461L193.561 422.394L191.027 417.326H182.159V424.927L187.226 427.461V435.062L199.895 437.596L207.496 445.197L212.563 451.531L199.895 448.997L184.693 445.197H177.092L164.423 448.997H156.822L153.022 440.129L147.954 437.596L137.819 445.197L126.418 448.997Z" stroke="#F6F5F5"/>
</svg>
