<svg width="159" height="44" viewBox="0 0 159 44" fill="none" xmlns="http://www.w3.org/2000/svg">
<path d="M93.05 4.4V17H90.656L84.374 9.35V17H81.494V4.4H83.906L90.17 12.05V4.4H93.05ZM100.441 17.144C99.4211 17.144 98.5031 16.934 97.6871 16.514C96.8831 16.082 96.2531 15.488 95.7971 14.732C95.3411 13.976 95.1131 13.118 95.1131 12.158C95.1131 11.198 95.3411 10.34 95.7971 9.584C96.2531 8.828 96.8831 8.24 97.6871 7.82C98.5031 7.388 99.4211 7.172 100.441 7.172C101.461 7.172 102.373 7.388 103.177 7.82C103.981 8.24 104.611 8.828 105.067 9.584C105.523 10.34 105.751 11.198 105.751 12.158C105.751 13.118 105.523 13.976 105.067 14.732C104.611 15.488 103.981 16.082 103.177 16.514C102.373 16.934 101.461 17.144 100.441 17.144ZM100.441 14.84C101.161 14.84 101.749 14.6 102.205 14.12C102.673 13.628 102.907 12.974 102.907 12.158C102.907 11.342 102.673 10.694 102.205 10.214C101.749 9.722 101.161 9.476 100.441 9.476C99.7211 9.476 99.1271 9.722 98.6591 10.214C98.1911 10.694 97.9571 11.342 97.9571 12.158C97.9571 12.974 98.1911 13.628 98.6591 14.12C99.1271 14.6 99.7211 14.84 100.441 14.84ZM110.31 8.594C110.646 8.126 111.096 7.772 111.66 7.532C112.236 7.292 112.896 7.172 113.64 7.172V9.764C113.328 9.74 113.118 9.728 113.01 9.728C112.206 9.728 111.576 9.956 111.12 10.412C110.664 10.856 110.436 11.528 110.436 12.428V17H107.628V7.316H110.31V8.594ZM121.89 16.532C121.614 16.736 121.272 16.892 120.864 17C120.468 17.096 120.048 17.144 119.604 17.144C118.452 17.144 117.558 16.85 116.922 16.262C116.298 15.674 115.986 14.81 115.986 13.67V9.692H114.492V7.532H115.986V5.174H118.794V7.532H121.206V9.692H118.794V13.634C118.794 14.042 118.896 14.36 119.1 14.588C119.316 14.804 119.616 14.912 120 14.912C120.444 14.912 120.822 14.792 121.134 14.552L121.89 16.532ZM129.352 7.172C130.552 7.172 131.518 7.532 132.25 8.252C132.994 8.972 133.366 10.04 133.366 11.456V17H130.558V11.888C130.558 11.12 130.39 10.55 130.054 10.178C129.718 9.794 129.232 9.602 128.596 9.602C127.888 9.602 127.324 9.824 126.904 10.268C126.484 10.7 126.274 11.348 126.274 12.212V17H123.466V3.644H126.274V8.324C126.646 7.952 127.096 7.67 127.624 7.478C128.152 7.274 128.728 7.172 129.352 7.172ZM84.104 28.776H80.072V26.4H91.052V28.776H87.02V39H84.104V28.776ZM94.894 30.594C95.23 30.126 95.68 29.772 96.244 29.532C96.82 29.292 97.48 29.172 98.224 29.172V31.764C97.912 31.74 97.702 31.728 97.594 31.728C96.79 31.728 96.16 31.956 95.704 32.412C95.248 32.856 95.02 33.528 95.02 34.428V39H92.212V29.316H94.894V30.594ZM103.747 29.172C105.247 29.172 106.399 29.532 107.203 30.252C108.007 30.96 108.409 32.034 108.409 33.474V39H105.781V37.794C105.253 38.694 104.269 39.144 102.829 39.144C102.085 39.144 101.437 39.018 100.885 38.766C100.345 38.514 99.9309 38.166 99.6429 37.722C99.3549 37.278 99.2109 36.774 99.2109 36.21C99.2109 35.31 99.5469 34.602 100.219 34.086C100.903 33.57 101.953 33.312 103.369 33.312H105.601C105.601 32.7 105.415 32.232 105.043 31.908C104.671 31.572 104.113 31.404 103.369 31.404C102.853 31.404 102.343 31.488 101.839 31.656C101.347 31.812 100.927 32.028 100.579 32.304L99.5709 30.342C100.099 29.97 100.729 29.682 101.461 29.478C102.205 29.274 102.967 29.172 103.747 29.172ZM103.531 37.254C104.011 37.254 104.437 37.146 104.809 36.93C105.181 36.702 105.445 36.372 105.601 35.94V34.95H103.675C102.523 34.95 101.947 35.328 101.947 36.084C101.947 36.444 102.085 36.732 102.361 36.948C102.649 37.152 103.039 37.254 103.531 37.254ZM120.387 29.316L116.301 39H113.403L109.335 29.316H112.233L114.915 35.904L117.687 29.316H120.387ZM130.755 34.194C130.755 34.23 130.737 34.482 130.701 34.95H123.375C123.507 35.55 123.819 36.024 124.311 36.372C124.803 36.72 125.415 36.894 126.147 36.894C126.651 36.894 127.095 36.822 127.479 36.678C127.875 36.522 128.241 36.282 128.577 35.958L130.071 37.578C129.159 38.622 127.827 39.144 126.075 39.144C124.983 39.144 124.017 38.934 123.177 38.514C122.337 38.082 121.689 37.488 121.233 36.732C120.777 35.976 120.549 35.118 120.549 34.158C120.549 33.21 120.771 32.358 121.215 31.602C121.671 30.834 122.289 30.24 123.069 29.82C123.861 29.388 124.743 29.172 125.715 29.172C126.663 29.172 127.521 29.376 128.289 29.784C129.057 30.192 129.657 30.78 130.089 31.548C130.533 32.304 130.755 33.186 130.755 34.194ZM125.733 31.296C125.097 31.296 124.563 31.476 124.131 31.836C123.699 32.196 123.435 32.688 123.339 33.312H128.109C128.013 32.7 127.749 32.214 127.317 31.854C126.885 31.482 126.357 31.296 125.733 31.296ZM132.624 25.644H135.432V39H132.624V25.644Z" fill="#F6F5F5"/>
<path d="M6.93496 30L1 39H9.30894L6.93496 33.6V30Z" fill="#F6F5F5"/>
<path d="M27.1138 11.4L25.9268 8.4L24.1463 9.6L22.9593 13.8L19.3984 18L18.2114 20.4L17.0244 25.8L19.3984 28.8L18.2114 32.4L21.7724 34.8L24.1463 39H41.3577L37.7967 34.8L31.8618 33.6L29.4878 30L27.1138 27.6V24L25.9268 19.2L27.1138 11.4Z" fill="#F6F5F5"/>
<path d="M35.4228 3L33.0488 8.4L29.4878 14.4V18L31.8618 21.6L34.8293 24L37.7967 25.8L38.9837 30L40.1707 31.2L45.5122 34.8L46.6992 39H61.5366L57.9756 32.4V27.6L57.3821 27L53.2276 25.8L49.0732 22.8L48.4797 18L43.1382 19.2L38.9837 16.2L36.6098 12.6L35.4228 8.4V3Z" fill="#F6F5F5"/>
<path d="M74 39L71.0325 33.6L65.0976 25.8L63.3171 22.2L60.9431 25.8L61.5366 30L65.0976 34.8L67.4715 36L69.252 39H74Z" fill="#F6F5F5"/>
<path d="M11.0894 28.8L9.30894 25.8L6.93496 30V33.6L9.30894 39H14.6504L12.2764 34.8L11.0894 32.4V28.8Z" fill="#F6F5F5"/>
<path d="M35.4228 3L33.0488 8.4L29.4878 14.4M35.4228 3L40.1707 8.4L45.5122 13.8L48.4797 18M35.4228 3V8.4L36.6098 12.6L38.9837 16.2L43.1382 19.2L48.4797 18M29.4878 14.4L28.8943 13.8L27.1138 11.4M29.4878 14.4V18L31.8618 21.6L34.8293 24L37.7967 25.8L38.9837 30L40.1707 31.2L45.5122 34.8L46.6992 39M27.1138 11.4L25.9268 8.4L24.1463 9.6L22.9593 13.8L19.3984 18L18.2114 20.4M27.1138 11.4L25.9268 19.2L27.1138 24V27.6L29.4878 30L31.8618 33.6L37.7967 34.8L41.3577 39M18.2114 20.4L17.0244 18V16.2L14.6504 20.4L13.4634 24L11.0894 28.8M18.2114 20.4L17.0244 25.8L19.3984 28.8L18.2114 32.4L21.7724 34.8L24.1463 39M11.0894 28.8L9.30894 25.8L6.93496 30M11.0894 28.8V32.4L12.2764 34.8L14.6504 39M6.93496 30L1 39H9.30894M6.93496 30V33.6L9.30894 39M60.9431 25.8L63.3171 22.2L65.0976 25.8L71.0325 33.6L74 39H69.252M60.9431 25.8L56.1951 20.4L53.2276 16.2L51.4472 12.6L48.4797 18M60.9431 25.8L61.5366 30L65.0976 34.8L67.4715 36L69.252 39M48.4797 18L49.0732 22.8L53.2276 25.8L57.3821 27L57.9756 27.6V32.4L61.5366 39M46.6992 39H61.5366M46.6992 39H41.3577M61.5366 39H69.252M14.6504 39H9.30894M14.6504 39H24.1463M24.1463 39H41.3577" stroke="white"/>
</svg>
