<svg width="59" height="59" viewBox="0 0 59 59" fill="none" xmlns="http://www.w3.org/2000/svg">
<path d="M16.3889 0C7.35206 0 0 7.35206 0 16.3889V42.6113C0 51.6479 7.35206 59 16.3889 59H42.6113C51.6479 59 59 51.6479 59 42.6113V16.3889C59 7.35206 51.6479 0 42.6113 0H16.3889ZM16.3889 6.55556H42.6113C48.0326 6.55556 52.4444 10.9674 52.4444 16.3889V42.6113C52.4444 48.0326 48.0326 52.4444 42.6113 52.4444H16.3889C10.9674 52.4444 6.55556 48.0326 6.55556 42.6113V16.3889C6.55556 10.9674 10.9674 6.55556 16.3889 6.55556ZM45.8887 9.83335C45.0196 9.83335 44.1858 10.1787 43.5711 10.7934C42.9564 11.4081 42.6113 12.2418 42.6113 13.1111C42.6113 13.9804 42.9564 14.8142 43.5711 15.4288C44.1858 16.0435 45.0196 16.3889 45.8887 16.3889C46.7582 16.3889 47.592 16.0435 48.2067 15.4288C48.8214 14.8142 49.1665 13.9804 49.1665 13.1111C49.1665 12.2418 48.8214 11.4081 48.2067 10.7934C47.592 10.1787 46.7582 9.83335 45.8887 9.83335ZM29.5 13.1111C20.4632 13.1111 13.1111 20.4632 13.1111 29.5C13.1111 38.537 20.4632 45.8887 29.5 45.8887C38.537 45.8887 45.8887 38.537 45.8887 29.5C45.8887 20.4632 38.537 13.1111 29.5 13.1111ZM29.5 19.6667C34.9214 19.6667 39.3335 24.0786 39.3335 29.5C39.3335 34.9214 34.9214 39.3335 29.5 39.3335C24.0786 39.3335 19.6667 34.9214 19.6667 29.5C19.6667 24.0786 24.0786 19.6667 29.5 19.6667Z" fill="black"/>
</svg>
