<svg width="74" height="59" viewBox="0 0 74 59" fill="none" xmlns="http://www.w3.org/2000/svg">
<path d="M74 6.98372C71.2764 8.17047 68.3505 8.96911 65.2798 9.3293C68.416 7.48636 70.821 4.56833 71.9535 1.08903C69.0224 2.79517 65.7719 4.03497 62.3113 4.70514C59.5423 1.80946 55.5973 0 51.2317 0C42.8471 0 36.0508 6.67098 36.0508 14.8945C36.0508 16.0617 36.1874 17.201 36.4436 18.2872C23.8271 17.6673 12.6421 11.7363 5.15132 2.72256C3.84785 4.92296 3.09934 7.48076 3.09934 10.2145C3.09934 15.3804 5.77748 19.9403 9.85018 22.6098C7.3627 22.5316 5.02042 21.8615 2.97412 20.7473C2.97412 20.8115 2.97412 20.8702 2.97412 20.9344C2.97412 28.1527 8.20516 34.173 15.1524 35.5385C13.8801 35.8792 12.5368 36.0607 11.1508 36.0607C10.1746 36.0607 9.22118 35.9657 8.29621 35.7954C10.2287 41.7123 15.8354 46.0211 22.4781 46.141C17.284 50.1371 10.7381 52.5189 3.62301 52.5189C2.39922 52.5189 1.18965 52.4492 0 52.3094C6.7195 56.5342 14.697 59 23.2721 59C51.1976 59 66.4638 36.3036 66.4638 16.6202C66.4638 15.9751 66.4494 15.3329 66.4209 14.6935C69.3894 12.5908 71.965 9.96875 74 6.98372Z" fill="black"/>
</svg>
