<svg width="78" height="47" viewBox="0 0 78 47" fill="none" xmlns="http://www.w3.org/2000/svg">
<path d="M2.63281 0C5.35933 0 9.51402 0 11.851 0C13.0195 0 13.9284 0.779006 14.3179 1.81768C15.4864 5.19337 18.0831 12.5939 21.0693 17.6575C25.0941 24.279 27.6908 26.7459 29.3787 26.4862C31.0665 26.0967 30.5472 21.6823 30.5472 18.1768C30.5472 14.6713 30.9367 8.6989 29.2488 5.97238L26.6521 2.20718C26.003 1.29834 26.6521 0.129835 27.6908 0.129835H42.4919C43.9201 0.129835 45.0886 1.29834 45.0886 2.72652V21.5525C45.0886 21.5525 45.7378 24.9282 49.3731 21.4227C53.0085 17.9171 56.9035 11.4254 60.1494 4.80387L61.4477 1.68785C61.8372 0.779006 62.7461 0.129835 63.7847 0.129835H73.3925C75.2102 0.129835 76.5085 1.94752 75.8593 3.63536L74.8207 6.36188C74.8207 6.36188 71.3151 13.3729 67.6798 18.3066C64.0444 23.3702 63.2654 24.5387 63.7847 25.837C64.3041 27.1354 73.6522 35.8343 75.9892 39.989C76.6383 41.1575 77.1577 42.1961 77.677 43.105C78.5859 44.7928 77.2875 47 75.34 47H64.4339C63.5251 47 62.6162 46.4807 62.2267 45.7017L61.1881 44.0138C61.1881 44.0138 54.5665 36.2238 50.5417 33.7569C46.387 31.4199 46.5168 34.7956 46.5168 34.7956V41.6768C46.5168 44.5332 44.1798 46.8702 41.3234 46.8702H38.7267C38.7267 46.8702 24.445 46.8702 13.0195 29.8619C4.06099 16.6188 1.0748 8.04972 0.0361236 3.11602C-0.223545 1.55801 0.944964 0 2.63281 0Z" fill="black"/>
</svg>
